<svg xmlns="http://www.w3.org/2000/svg" viewBox="0 0 200 200">
  <!-- Background circle -->
  <circle cx="100" cy="100" r="35" fill="#f0f0f0" />
  
  <!-- Mountain/Mining element -->
  <path d="M75 115 L100 85 L125 115 Z" fill="#666666" />
  <path d="M82 115 L100 92 L118 115 Z" fill="#808080" />
  
  <!-- Neural network nodes (AI) -->
  <circle cx="90" cy="97" r="2" fill="#3498db" />
  <circle cx="100" cy="90" r="2" fill="#3498db" />
  <circle cx="110" cy="97" r="2" fill="#3498db" />
  <circle cx="95" cy="105" r="2" fill="#3498db" />
  <circle cx="105" cy="105" r="2" fill="#3498db" />
  
  <!-- Neural network connections -->
  <path d="M90 97 L100 90 L110 97 L105 105 L95 105 L90 97" 
        stroke="#3498db" 
        fill="none" 
        stroke-width="0.75" />
  
  <!-- Realistic Fire element -->
  <!-- Base/outer flame -->
  <path d="M95 82
           C97 80, 99 77, 100 75
           C101 77, 103 80, 105 82
           C106 85, 106 88, 105 91
           C103 94, 101 95, 100 96
           C99 95, 97 94, 95 91
           C94 88, 94 85, 95 82" 
        fill="#e74c3c" />
  
  <!-- Middle flame -->
  <path d="M96 83
           C97 81, 99 79, 100 77
           C101 79, 103 81, 104 83
           C105 86, 105 88, 104 90
           C103 92, 101 93, 100 94
           C99 93, 97 92, 96 90
           C95 88, 95 86, 96 83" 
        fill="#f39c12" />
  
  <!-- Inner flame -->
  <path d="M97 84
           C98 82, 99 81, 100 79
           C101 81, 102 82, 103 84
           C104 86, 104 88, 103 89
           C102 91, 101 92, 100 93
           C99 92, 98 91, 97 89
           C96 88, 96 86, 97 84" 
        fill="#f1c40f" />
  
  <!-- Crystalline structure (critical metals) -->
  <path d="M95 111 L100 108 L105 111 L105 116 L100 119 L95 116 Z" 
        fill="#9b59b6" 
        stroke="#8e44ad" 
        stroke-width="0.4" />
  
  <!-- Measuring gauge arc -->
  <path d="M85 120 A 22 22 0 0 1 115 120" 
        stroke="#e74c3c" 
        fill="none" 
        stroke-width="1.5" 
        stroke-linecap="round" />
</svg>