<svg xmlns="http://www.w3.org/2000/svg" viewBox="0 0 200 200">
  <!-- Background circle -->
  <circle cx="100" cy="100" r="90" fill="#f0f0f0" />
  
  <!-- Mountain/Mining element -->
  <path d="M40 140 L100 60 L160 140 Z" fill="#666666" />
  <path d="M60 140 L100 80 L140 140 Z" fill="#808080" />
  
  <!-- Neural network nodes (AI) -->
  <circle cx="70" cy="90" r="5" fill="#3498db" />
  <circle cx="100" cy="70" r="5" fill="#3498db" />
  <circle cx="130" cy="90" r="5" fill="#3498db" />
  <circle cx="85" cy="110" r="5" fill="#3498db" />
  <circle cx="115" cy="110" r="5" fill="#3498db" />
  
  <!-- Neural network connections -->
  <path d="M70 90 L100 70 L130 90 L115 110 L85 110 L70 90" 
        stroke="#3498db" 
        fill="none" 
        stroke-width="2" />
  
  <!-- Realistic Fire element -->
  <!-- Base/outer flame -->
  <path d="M85 45 
           C90 40, 95 35, 100 30
           C105 35, 110 40, 115 45
           C120 55, 118 65, 115 75
           C110 85, 105 90, 100 95
           C95 90, 90 85, 85 75
           C82 65, 80 55, 85 45" 
        fill="#e74c3c" />
  
  <!-- Middle flame -->
  <path d="M90 50
           C93 45, 97 40, 100 35
           C103 40, 107 45, 110 50
           C113 60, 112 68, 110 75
           C106 82, 103 85, 100 88
           C97 85, 94 82, 90 75
           C88 68, 87 60, 90 50" 
        fill="#f39c12" />
  
  <!-- Inner flame -->
  <path d="M95 55
           C97 50, 99 45, 100 40
           C101 45, 103 50, 105 55
           C107 62, 106 68, 105 73
           C103 78, 101 80, 100 82
           C99 80, 97 78, 95 73
           C94 68, 93 62, 95 55" 
        fill="#f1c40f" />
  
  <!-- Crystalline structure (critical metals) -->
  <path d="M85 130 L100 120 L115 130 L115 145 L100 155 L85 145 Z" 
        fill="#9b59b6" 
        stroke="#8e44ad" 
        stroke-width="1" />
  
  <!-- Measuring gauge arc -->
  <path d="M60 160 A 60 60 0 0 1 140 160" 
        stroke="#e74c3c" 
        fill="none" 
        stroke-width="4" 
        stroke-linecap="round" />
</svg>
